<mxfile host="Electron" modified="2024-01-22T09:57:32.965Z" agent="Mozilla/5.0 (Windows NT 10.0; Win64; x64) AppleWebKit/537.36 (KHTML, like Gecko) draw.io/22.1.2 Chrome/114.0.5735.289 Electron/25.9.4 Safari/537.36" etag="Zs9xuQQdhoJ_dXTfyYV0" version="22.1.2" type="device">
  <diagram name="第 1 页" id="TsY9wb42a6TiuIKSGNau">
    <mxGraphModel dx="2444" dy="1549" grid="1" gridSize="10" guides="1" tooltips="1" connect="1" arrows="1" fold="1" page="1" pageScale="1" pageWidth="491" pageHeight="413" math="0" shadow="0">
      <root>
        <mxCell id="0" />
        <mxCell id="1" parent="0" />
        <mxCell id="vgv1np8Shwui1xYo7a8W-1" value="" style="rounded=0;whiteSpace=wrap;html=1;" vertex="1" parent="1">
          <mxGeometry x="-450" y="-206" width="50" height="50" as="geometry" />
        </mxCell>
        <mxCell id="vgv1np8Shwui1xYo7a8W-2" value="" style="rounded=0;whiteSpace=wrap;html=1;" vertex="1" parent="1">
          <mxGeometry x="-400" y="-206" width="50" height="50" as="geometry" />
        </mxCell>
        <mxCell id="vgv1np8Shwui1xYo7a8W-8" style="edgeStyle=orthogonalEdgeStyle;rounded=0;orthogonalLoop=1;jettySize=auto;html=1;exitX=0.5;exitY=1;exitDx=0;exitDy=0;entryX=0.5;entryY=0;entryDx=0;entryDy=0;" edge="1" parent="1" source="vgv1np8Shwui1xYo7a8W-5" target="vgv1np8Shwui1xYo7a8W-6">
          <mxGeometry relative="1" as="geometry" />
        </mxCell>
        <mxCell id="vgv1np8Shwui1xYo7a8W-5" value="A" style="ellipse;whiteSpace=wrap;html=1;aspect=fixed;fillColor=#d5e8d4;strokeColor=#82b366;fontSize=16;fontStyle=1" vertex="1" parent="1">
          <mxGeometry x="-392.5" y="-198.5" width="35" height="35" as="geometry" />
        </mxCell>
        <mxCell id="vgv1np8Shwui1xYo7a8W-10" style="edgeStyle=orthogonalEdgeStyle;rounded=0;orthogonalLoop=1;jettySize=auto;html=1;exitX=0.5;exitY=1;exitDx=0;exitDy=0;entryX=0.5;entryY=0;entryDx=0;entryDy=0;" edge="1" parent="1" source="vgv1np8Shwui1xYo7a8W-6" target="vgv1np8Shwui1xYo7a8W-9">
          <mxGeometry relative="1" as="geometry" />
        </mxCell>
        <mxCell id="vgv1np8Shwui1xYo7a8W-6" value="B" style="ellipse;whiteSpace=wrap;html=1;aspect=fixed;fillColor=#d5e8d4;strokeColor=#82b366;fontSize=16;fontStyle=1" vertex="1" parent="1">
          <mxGeometry x="-392.5" y="-136" width="35" height="35" as="geometry" />
        </mxCell>
        <mxCell id="vgv1np8Shwui1xYo7a8W-9" value="null" style="text;html=1;strokeColor=none;fillColor=none;align=center;verticalAlign=middle;whiteSpace=wrap;rounded=0;fontSize=14;fontStyle=1" vertex="1" parent="1">
          <mxGeometry x="-390" y="-74.5" width="30" height="10" as="geometry" />
        </mxCell>
        <mxCell id="vgv1np8Shwui1xYo7a8W-11" value="" style="rounded=0;whiteSpace=wrap;html=1;" vertex="1" parent="1">
          <mxGeometry x="280" y="-100.5" width="50" height="50" as="geometry" />
        </mxCell>
        <mxCell id="vgv1np8Shwui1xYo7a8W-13" value="" style="rounded=0;whiteSpace=wrap;html=1;" vertex="1" parent="1">
          <mxGeometry x="380" y="-100.5" width="50" height="50" as="geometry" />
        </mxCell>
        <mxCell id="vgv1np8Shwui1xYo7a8W-14" value="" style="rounded=0;whiteSpace=wrap;html=1;" vertex="1" parent="1">
          <mxGeometry x="430" y="-100.5" width="50" height="50" as="geometry" />
        </mxCell>
        <mxCell id="vgv1np8Shwui1xYo7a8W-17" value="" style="rounded=0;whiteSpace=wrap;html=1;" vertex="1" parent="1">
          <mxGeometry x="-81.5" y="178.5" width="50" height="50" as="geometry" />
        </mxCell>
        <mxCell id="vgv1np8Shwui1xYo7a8W-18" value="" style="rounded=0;whiteSpace=wrap;html=1;" vertex="1" parent="1">
          <mxGeometry x="-31.5" y="178.5" width="50" height="50" as="geometry" />
        </mxCell>
        <mxCell id="vgv1np8Shwui1xYo7a8W-19" value="" style="rounded=0;whiteSpace=wrap;html=1;" vertex="1" parent="1">
          <mxGeometry x="330" y="-100.5" width="50" height="50" as="geometry" />
        </mxCell>
        <mxCell id="vgv1np8Shwui1xYo7a8W-20" style="edgeStyle=orthogonalEdgeStyle;rounded=0;orthogonalLoop=1;jettySize=auto;html=1;exitX=0.5;exitY=1;exitDx=0;exitDy=0;entryX=0.5;entryY=0;entryDx=0;entryDy=0;" edge="1" parent="1" source="vgv1np8Shwui1xYo7a8W-21" target="vgv1np8Shwui1xYo7a8W-23">
          <mxGeometry relative="1" as="geometry" />
        </mxCell>
        <mxCell id="vgv1np8Shwui1xYo7a8W-21" value="B" style="ellipse;whiteSpace=wrap;html=1;aspect=fixed;fillColor=#d5e8d4;strokeColor=#82b366;fontSize=16;fontStyle=1" vertex="1" parent="1">
          <mxGeometry x="337.5" y="-93" width="35" height="35" as="geometry" />
        </mxCell>
        <mxCell id="vgv1np8Shwui1xYo7a8W-22" style="edgeStyle=orthogonalEdgeStyle;rounded=0;orthogonalLoop=1;jettySize=auto;html=1;exitX=0.5;exitY=1;exitDx=0;exitDy=0;entryX=0.5;entryY=0;entryDx=0;entryDy=0;" edge="1" parent="1" source="vgv1np8Shwui1xYo7a8W-23" target="vgv1np8Shwui1xYo7a8W-24">
          <mxGeometry relative="1" as="geometry" />
        </mxCell>
        <mxCell id="vgv1np8Shwui1xYo7a8W-23" value="A" style="ellipse;whiteSpace=wrap;html=1;aspect=fixed;fillColor=#d5e8d4;strokeColor=#82b366;fontSize=16;fontStyle=1" vertex="1" parent="1">
          <mxGeometry x="337.5" y="-30.5" width="35" height="35" as="geometry" />
        </mxCell>
        <mxCell id="vgv1np8Shwui1xYo7a8W-24" value="null" style="text;html=1;strokeColor=none;fillColor=none;align=center;verticalAlign=middle;whiteSpace=wrap;rounded=0;fontSize=14;fontStyle=1" vertex="1" parent="1">
          <mxGeometry x="340" y="31" width="30" height="10" as="geometry" />
        </mxCell>
        <mxCell id="vgv1np8Shwui1xYo7a8W-48" value="" style="rounded=0;whiteSpace=wrap;html=1;" vertex="1" parent="1">
          <mxGeometry x="-340" y="178.5" width="50" height="50" as="geometry" />
        </mxCell>
        <mxCell id="vgv1np8Shwui1xYo7a8W-49" value="" style="rounded=0;whiteSpace=wrap;html=1;flipH=1;flipV=1;" vertex="1" parent="1">
          <mxGeometry x="-290" y="178.5" width="50" height="50" as="geometry" />
        </mxCell>
        <mxCell id="vgv1np8Shwui1xYo7a8W-58" style="edgeStyle=orthogonalEdgeStyle;rounded=0;orthogonalLoop=1;jettySize=auto;html=1;exitX=0.5;exitY=1;exitDx=0;exitDy=0;entryX=0.5;entryY=0;entryDx=0;entryDy=0;" edge="1" parent="1" source="vgv1np8Shwui1xYo7a8W-51" target="vgv1np8Shwui1xYo7a8W-54">
          <mxGeometry relative="1" as="geometry" />
        </mxCell>
        <mxCell id="vgv1np8Shwui1xYo7a8W-51" value="A" style="ellipse;whiteSpace=wrap;html=1;aspect=fixed;fillColor=#d5e8d4;strokeColor=#82b366;fontSize=16;fontStyle=1;flipH=1;flipV=1;" vertex="1" parent="1">
          <mxGeometry x="-282.5" y="186" width="35" height="35" as="geometry" />
        </mxCell>
        <mxCell id="vgv1np8Shwui1xYo7a8W-55" style="edgeStyle=orthogonalEdgeStyle;rounded=0;orthogonalLoop=1;jettySize=auto;html=1;exitX=0.5;exitY=1;exitDx=0;exitDy=0;entryX=0.5;entryY=0;entryDx=0;entryDy=0;" edge="1" parent="1" source="vgv1np8Shwui1xYo7a8W-53" target="vgv1np8Shwui1xYo7a8W-51">
          <mxGeometry relative="1" as="geometry" />
        </mxCell>
        <mxCell id="vgv1np8Shwui1xYo7a8W-53" value="B" style="ellipse;whiteSpace=wrap;html=1;aspect=fixed;fillColor=#d5e8d4;strokeColor=#82b366;fontSize=16;fontStyle=1;flipH=1;flipV=1;" vertex="1" parent="1">
          <mxGeometry x="-282.5" y="120" width="35" height="35" as="geometry" />
        </mxCell>
        <mxCell id="vgv1np8Shwui1xYo7a8W-54" value="null" style="text;html=1;strokeColor=none;fillColor=none;align=center;verticalAlign=middle;whiteSpace=wrap;rounded=0;fontSize=14;fontStyle=1;flipH=1;flipV=1;" vertex="1" parent="1">
          <mxGeometry x="-280" y="251" width="30" height="10" as="geometry" />
        </mxCell>
        <mxCell id="vgv1np8Shwui1xYo7a8W-59" value="" style="rounded=0;whiteSpace=wrap;html=1;" vertex="1" parent="1">
          <mxGeometry x="-177.5" y="178.5" width="50" height="50" as="geometry" />
        </mxCell>
        <mxCell id="vgv1np8Shwui1xYo7a8W-60" value="" style="rounded=0;whiteSpace=wrap;html=1;flipH=1;flipV=1;" vertex="1" parent="1">
          <mxGeometry x="-127.5" y="178.5" width="50" height="50" as="geometry" />
        </mxCell>
        <mxCell id="vgv1np8Shwui1xYo7a8W-61" style="edgeStyle=orthogonalEdgeStyle;rounded=0;orthogonalLoop=1;jettySize=auto;html=1;exitX=0.5;exitY=1;exitDx=0;exitDy=0;entryX=0.5;entryY=0;entryDx=0;entryDy=0;" edge="1" parent="1" source="vgv1np8Shwui1xYo7a8W-62" target="vgv1np8Shwui1xYo7a8W-63">
          <mxGeometry relative="1" as="geometry" />
        </mxCell>
        <mxCell id="vgv1np8Shwui1xYo7a8W-62" value="A" style="ellipse;whiteSpace=wrap;html=1;aspect=fixed;fillColor=#d5e8d4;strokeColor=#82b366;fontSize=16;fontStyle=1;flipH=1;flipV=1;" vertex="1" parent="1">
          <mxGeometry x="-120" y="186" width="35" height="35" as="geometry" />
        </mxCell>
        <mxCell id="vgv1np8Shwui1xYo7a8W-63" value="null" style="text;html=1;strokeColor=none;fillColor=none;align=center;verticalAlign=middle;whiteSpace=wrap;rounded=0;fontSize=14;fontStyle=1;flipH=1;flipV=1;" vertex="1" parent="1">
          <mxGeometry x="-117.5" y="251" width="30" height="10" as="geometry" />
        </mxCell>
        <mxCell id="vgv1np8Shwui1xYo7a8W-64" value="执行 Entry&amp;lt;V,K&amp;gt; next = e.next;" style="text;html=1;strokeColor=none;fillColor=none;align=center;verticalAlign=middle;whiteSpace=wrap;rounded=0;fontStyle=1;fontSize=14;spacingTop=0;" vertex="1" parent="1">
          <mxGeometry x="-232.5" y="-222.5" width="250" height="50" as="geometry" />
        </mxCell>
        <mxCell id="vgv1np8Shwui1xYo7a8W-66" value="next = B" style="text;html=1;strokeColor=none;fillColor=none;align=center;verticalAlign=middle;whiteSpace=wrap;rounded=0;fontStyle=1;fontSize=14;" vertex="1" parent="1">
          <mxGeometry x="-162.5" y="-172.5" width="110" height="30" as="geometry" />
        </mxCell>
        <mxCell id="vgv1np8Shwui1xYo7a8W-67" value="线程1" style="text;html=1;strokeColor=none;fillColor=none;align=center;verticalAlign=middle;whiteSpace=wrap;rounded=0;fontStyle=1;fontSize=14;spacingTop=0;" vertex="1" parent="1">
          <mxGeometry x="-232.5" y="-280" width="250" height="50" as="geometry" />
        </mxCell>
        <mxCell id="vgv1np8Shwui1xYo7a8W-68" value="执行完扩容方法" style="text;html=1;strokeColor=none;fillColor=none;align=center;verticalAlign=middle;whiteSpace=wrap;rounded=0;fontStyle=1;fontSize=14;spacingTop=0;" vertex="1" parent="1">
          <mxGeometry x="40" y="-51.5" width="250" height="50" as="geometry" />
        </mxCell>
        <mxCell id="vgv1np8Shwui1xYo7a8W-70" value="线程2" style="text;html=1;strokeColor=none;fillColor=none;align=center;verticalAlign=middle;whiteSpace=wrap;rounded=0;fontStyle=1;fontSize=14;spacingTop=0;" vertex="1" parent="1">
          <mxGeometry x="48.75" y="-281" width="250" height="50" as="geometry" />
        </mxCell>
        <mxCell id="vgv1np8Shwui1xYo7a8W-71" value="" style="rounded=0;whiteSpace=wrap;html=1;" vertex="1" parent="1">
          <mxGeometry x="520" y="-51.5" width="50" height="50" as="geometry" />
        </mxCell>
        <mxCell id="vgv1np8Shwui1xYo7a8W-72" value="" style="rounded=0;whiteSpace=wrap;html=1;flipH=1;flipV=1;" vertex="1" parent="1">
          <mxGeometry x="570" y="-51.5" width="50" height="50" as="geometry" />
        </mxCell>
        <mxCell id="vgv1np8Shwui1xYo7a8W-73" style="edgeStyle=orthogonalEdgeStyle;rounded=0;orthogonalLoop=1;jettySize=auto;html=1;exitX=0.5;exitY=1;exitDx=0;exitDy=0;entryX=0.5;entryY=0;entryDx=0;entryDy=0;" edge="1" parent="1" source="vgv1np8Shwui1xYo7a8W-74" target="vgv1np8Shwui1xYo7a8W-77">
          <mxGeometry relative="1" as="geometry" />
        </mxCell>
        <mxCell id="vgv1np8Shwui1xYo7a8W-74" value="A" style="ellipse;whiteSpace=wrap;html=1;aspect=fixed;fillColor=#d5e8d4;strokeColor=#82b366;fontSize=16;fontStyle=1;flipH=1;flipV=1;" vertex="1" parent="1">
          <mxGeometry x="577.5" y="-44" width="35" height="35" as="geometry" />
        </mxCell>
        <mxCell id="vgv1np8Shwui1xYo7a8W-75" style="edgeStyle=orthogonalEdgeStyle;rounded=0;orthogonalLoop=1;jettySize=auto;html=1;exitX=0.5;exitY=1;exitDx=0;exitDy=0;entryX=0.5;entryY=0;entryDx=0;entryDy=0;" edge="1" parent="1" source="vgv1np8Shwui1xYo7a8W-76" target="vgv1np8Shwui1xYo7a8W-74">
          <mxGeometry relative="1" as="geometry" />
        </mxCell>
        <mxCell id="vgv1np8Shwui1xYo7a8W-76" value="B" style="ellipse;whiteSpace=wrap;html=1;aspect=fixed;fillColor=#d5e8d4;strokeColor=#82b366;fontSize=16;fontStyle=1;flipH=1;flipV=1;" vertex="1" parent="1">
          <mxGeometry x="577.5" y="-110" width="35" height="35" as="geometry" />
        </mxCell>
        <mxCell id="vgv1np8Shwui1xYo7a8W-77" value="null" style="text;html=1;strokeColor=none;fillColor=none;align=center;verticalAlign=middle;whiteSpace=wrap;rounded=0;fontSize=14;fontStyle=1;flipH=1;flipV=1;" vertex="1" parent="1">
          <mxGeometry x="580" y="21" width="30" height="10" as="geometry" />
        </mxCell>
        <mxCell id="vgv1np8Shwui1xYo7a8W-78" value="继续执行" style="text;html=1;strokeColor=none;fillColor=none;align=center;verticalAlign=middle;whiteSpace=wrap;rounded=0;fontStyle=1;fontSize=14;" vertex="1" parent="1">
          <mxGeometry x="-187.5" y="78.5" width="110" height="30" as="geometry" />
        </mxCell>
        <mxCell id="vgv1np8Shwui1xYo7a8W-79" value="" style="endArrow=none;dashed=1;html=1;rounded=0;" edge="1" parent="1">
          <mxGeometry width="50" height="50" relative="1" as="geometry">
            <mxPoint x="-270" y="-220" as="sourcePoint" />
            <mxPoint x="640" y="-220" as="targetPoint" />
          </mxGeometry>
        </mxCell>
        <mxCell id="vgv1np8Shwui1xYo7a8W-81" value="" style="endArrow=none;dashed=1;html=1;rounded=0;" edge="1" parent="1">
          <mxGeometry width="50" height="50" relative="1" as="geometry">
            <mxPoint x="-270" y="-130" as="sourcePoint" />
            <mxPoint x="640" y="-130" as="targetPoint" />
          </mxGeometry>
        </mxCell>
        <mxCell id="vgv1np8Shwui1xYo7a8W-82" value="" style="endArrow=none;dashed=1;html=1;rounded=0;" edge="1" parent="1">
          <mxGeometry width="50" height="50" relative="1" as="geometry">
            <mxPoint x="-270" y="60" as="sourcePoint" />
            <mxPoint x="640" y="60" as="targetPoint" />
          </mxGeometry>
        </mxCell>
        <mxCell id="vgv1np8Shwui1xYo7a8W-83" value="" style="endArrow=none;dashed=1;html=1;rounded=0;" edge="1" parent="1">
          <mxGeometry width="50" height="50" relative="1" as="geometry">
            <mxPoint x="40" y="650" as="sourcePoint" />
            <mxPoint x="40" y="-315" as="targetPoint" />
          </mxGeometry>
        </mxCell>
        <mxCell id="vgv1np8Shwui1xYo7a8W-86" value="" style="rounded=0;whiteSpace=wrap;html=1;" vertex="1" parent="1">
          <mxGeometry x="-82.5" y="357.5" width="50" height="50" as="geometry" />
        </mxCell>
        <mxCell id="vgv1np8Shwui1xYo7a8W-87" value="" style="rounded=0;whiteSpace=wrap;html=1;" vertex="1" parent="1">
          <mxGeometry x="-32.5" y="357.5" width="50" height="50" as="geometry" />
        </mxCell>
        <mxCell id="vgv1np8Shwui1xYo7a8W-88" value="" style="rounded=0;whiteSpace=wrap;html=1;" vertex="1" parent="1">
          <mxGeometry x="-341" y="357.5" width="50" height="50" as="geometry" />
        </mxCell>
        <mxCell id="vgv1np8Shwui1xYo7a8W-89" value="" style="rounded=0;whiteSpace=wrap;html=1;flipH=1;flipV=1;" vertex="1" parent="1">
          <mxGeometry x="-291" y="357.5" width="50" height="50" as="geometry" />
        </mxCell>
        <mxCell id="vgv1np8Shwui1xYo7a8W-90" style="edgeStyle=orthogonalEdgeStyle;rounded=0;orthogonalLoop=1;jettySize=auto;html=1;exitX=0.5;exitY=1;exitDx=0;exitDy=0;entryX=0.5;entryY=0;entryDx=0;entryDy=0;" edge="1" parent="1" source="vgv1np8Shwui1xYo7a8W-91" target="vgv1np8Shwui1xYo7a8W-94">
          <mxGeometry relative="1" as="geometry" />
        </mxCell>
        <mxCell id="vgv1np8Shwui1xYo7a8W-91" value="A" style="ellipse;whiteSpace=wrap;html=1;aspect=fixed;fillColor=#d5e8d4;strokeColor=#82b366;fontSize=16;fontStyle=1;flipH=1;flipV=1;" vertex="1" parent="1">
          <mxGeometry x="-283.5" y="365" width="35" height="35" as="geometry" />
        </mxCell>
        <mxCell id="vgv1np8Shwui1xYo7a8W-92" style="edgeStyle=orthogonalEdgeStyle;rounded=0;orthogonalLoop=1;jettySize=auto;html=1;exitX=0.5;exitY=1;exitDx=0;exitDy=0;entryX=0.5;entryY=0;entryDx=0;entryDy=0;" edge="1" parent="1" source="vgv1np8Shwui1xYo7a8W-93" target="vgv1np8Shwui1xYo7a8W-91">
          <mxGeometry relative="1" as="geometry" />
        </mxCell>
        <mxCell id="vgv1np8Shwui1xYo7a8W-93" value="B" style="ellipse;whiteSpace=wrap;html=1;aspect=fixed;fillColor=#d5e8d4;strokeColor=#82b366;fontSize=16;fontStyle=1;flipH=1;flipV=1;" vertex="1" parent="1">
          <mxGeometry x="-283.5" y="299" width="35" height="35" as="geometry" />
        </mxCell>
        <mxCell id="vgv1np8Shwui1xYo7a8W-94" value="null" style="text;html=1;strokeColor=none;fillColor=none;align=center;verticalAlign=middle;whiteSpace=wrap;rounded=0;fontSize=14;fontStyle=1;flipH=1;flipV=1;" vertex="1" parent="1">
          <mxGeometry x="-281" y="430" width="30" height="10" as="geometry" />
        </mxCell>
        <mxCell id="vgv1np8Shwui1xYo7a8W-95" value="" style="rounded=0;whiteSpace=wrap;html=1;" vertex="1" parent="1">
          <mxGeometry x="-178.5" y="357.5" width="50" height="50" as="geometry" />
        </mxCell>
        <mxCell id="vgv1np8Shwui1xYo7a8W-96" value="" style="rounded=0;whiteSpace=wrap;html=1;flipH=1;flipV=1;" vertex="1" parent="1">
          <mxGeometry x="-128.5" y="357.5" width="50" height="50" as="geometry" />
        </mxCell>
        <mxCell id="vgv1np8Shwui1xYo7a8W-97" style="edgeStyle=orthogonalEdgeStyle;rounded=0;orthogonalLoop=1;jettySize=auto;html=1;exitX=0.5;exitY=1;exitDx=0;exitDy=0;entryX=0.5;entryY=0;entryDx=0;entryDy=0;" edge="1" parent="1" source="vgv1np8Shwui1xYo7a8W-98" target="vgv1np8Shwui1xYo7a8W-99">
          <mxGeometry relative="1" as="geometry" />
        </mxCell>
        <mxCell id="vgv1np8Shwui1xYo7a8W-98" value="A" style="ellipse;whiteSpace=wrap;html=1;aspect=fixed;fillColor=#d5e8d4;strokeColor=#82b366;fontSize=16;fontStyle=1;flipH=1;flipV=1;" vertex="1" parent="1">
          <mxGeometry x="-121" y="365" width="35" height="35" as="geometry" />
        </mxCell>
        <mxCell id="vgv1np8Shwui1xYo7a8W-99" value="null" style="text;html=1;strokeColor=none;fillColor=none;align=center;verticalAlign=middle;whiteSpace=wrap;rounded=0;fontSize=14;fontStyle=1;flipH=1;flipV=1;" vertex="1" parent="1">
          <mxGeometry x="-118.5" y="430" width="30" height="10" as="geometry" />
        </mxCell>
        <mxCell id="vgv1np8Shwui1xYo7a8W-103" style="edgeStyle=orthogonalEdgeStyle;rounded=0;orthogonalLoop=1;jettySize=auto;html=1;exitX=0.5;exitY=1;exitDx=0;exitDy=0;entryX=0.5;entryY=0;entryDx=0;entryDy=0;" edge="1" parent="1" source="vgv1np8Shwui1xYo7a8W-102" target="vgv1np8Shwui1xYo7a8W-98">
          <mxGeometry relative="1" as="geometry" />
        </mxCell>
        <mxCell id="vgv1np8Shwui1xYo7a8W-102" value="B" style="ellipse;whiteSpace=wrap;html=1;aspect=fixed;fillColor=#d5e8d4;strokeColor=#82b366;fontSize=16;fontStyle=1;flipH=1;flipV=1;" vertex="1" parent="1">
          <mxGeometry x="-121" y="299" width="35" height="35" as="geometry" />
        </mxCell>
        <mxCell id="vgv1np8Shwui1xYo7a8W-104" value="" style="rounded=0;whiteSpace=wrap;html=1;" vertex="1" parent="1">
          <mxGeometry x="-83.5" y="537.5" width="50" height="50" as="geometry" />
        </mxCell>
        <mxCell id="vgv1np8Shwui1xYo7a8W-105" value="" style="rounded=0;whiteSpace=wrap;html=1;" vertex="1" parent="1">
          <mxGeometry x="-33.5" y="537.5" width="50" height="50" as="geometry" />
        </mxCell>
        <mxCell id="vgv1np8Shwui1xYo7a8W-113" value="" style="rounded=0;whiteSpace=wrap;html=1;" vertex="1" parent="1">
          <mxGeometry x="-179.5" y="537.5" width="50" height="50" as="geometry" />
        </mxCell>
        <mxCell id="vgv1np8Shwui1xYo7a8W-114" value="" style="rounded=0;whiteSpace=wrap;html=1;flipH=1;flipV=1;" vertex="1" parent="1">
          <mxGeometry x="-129.5" y="537.5" width="50" height="50" as="geometry" />
        </mxCell>
        <mxCell id="vgv1np8Shwui1xYo7a8W-115" style="edgeStyle=orthogonalEdgeStyle;rounded=0;orthogonalLoop=1;jettySize=auto;html=1;exitX=0.5;exitY=1;exitDx=0;exitDy=0;entryX=0.5;entryY=0;entryDx=0;entryDy=0;" edge="1" parent="1" source="vgv1np8Shwui1xYo7a8W-116" target="vgv1np8Shwui1xYo7a8W-117">
          <mxGeometry relative="1" as="geometry" />
        </mxCell>
        <mxCell id="vgv1np8Shwui1xYo7a8W-116" value="A" style="ellipse;whiteSpace=wrap;html=1;aspect=fixed;fillColor=#d5e8d4;strokeColor=#82b366;fontSize=16;fontStyle=1;flipH=1;flipV=1;" vertex="1" parent="1">
          <mxGeometry x="-122" y="545" width="35" height="35" as="geometry" />
        </mxCell>
        <mxCell id="vgv1np8Shwui1xYo7a8W-117" value="null" style="text;html=1;strokeColor=none;fillColor=none;align=center;verticalAlign=middle;whiteSpace=wrap;rounded=0;fontSize=14;fontStyle=1;flipH=1;flipV=1;" vertex="1" parent="1">
          <mxGeometry x="-119.5" y="610" width="30" height="10" as="geometry" />
        </mxCell>
        <mxCell id="vgv1np8Shwui1xYo7a8W-120" style="edgeStyle=orthogonalEdgeStyle;rounded=0;orthogonalLoop=1;jettySize=auto;html=1;exitX=0.5;exitY=1;exitDx=0;exitDy=0;entryX=0.5;entryY=0;entryDx=0;entryDy=0;curved=1;" edge="1" parent="1" source="vgv1np8Shwui1xYo7a8W-121" target="vgv1np8Shwui1xYo7a8W-116">
          <mxGeometry relative="1" as="geometry">
            <Array as="points">
              <mxPoint x="-119" y="514" />
              <mxPoint x="-119" y="545" />
            </Array>
          </mxGeometry>
        </mxCell>
        <mxCell id="vgv1np8Shwui1xYo7a8W-121" value="B" style="ellipse;whiteSpace=wrap;html=1;aspect=fixed;fillColor=#d5e8d4;strokeColor=#82b366;fontSize=16;fontStyle=1;flipH=1;flipV=1;" vertex="1" parent="1">
          <mxGeometry x="-122" y="479" width="35" height="35" as="geometry" />
        </mxCell>
        <mxCell id="vgv1np8Shwui1xYo7a8W-123" style="edgeStyle=orthogonalEdgeStyle;rounded=0;orthogonalLoop=1;jettySize=auto;html=1;exitX=0.5;exitY=1;exitDx=0;exitDy=0;entryX=0.5;entryY=0;entryDx=0;entryDy=0;curved=1;" edge="1" parent="1">
          <mxGeometry relative="1" as="geometry">
            <mxPoint x="-101.5" y="545" as="sourcePoint" />
            <mxPoint x="-101.5" y="514" as="targetPoint" />
            <Array as="points">
              <mxPoint x="-86.5" y="545" />
              <mxPoint x="-86.5" y="514" />
            </Array>
          </mxGeometry>
        </mxCell>
        <mxCell id="vgv1np8Shwui1xYo7a8W-124" value="" style="rounded=0;whiteSpace=wrap;html=1;" vertex="1" parent="1">
          <mxGeometry x="-341" y="537.5" width="50" height="50" as="geometry" />
        </mxCell>
        <mxCell id="vgv1np8Shwui1xYo7a8W-125" value="" style="rounded=0;whiteSpace=wrap;html=1;flipH=1;flipV=1;" vertex="1" parent="1">
          <mxGeometry x="-291" y="537.5" width="50" height="50" as="geometry" />
        </mxCell>
        <mxCell id="vgv1np8Shwui1xYo7a8W-126" style="edgeStyle=orthogonalEdgeStyle;rounded=0;orthogonalLoop=1;jettySize=auto;html=1;exitX=0.5;exitY=1;exitDx=0;exitDy=0;entryX=0.5;entryY=0;entryDx=0;entryDy=0;" edge="1" parent="1" source="vgv1np8Shwui1xYo7a8W-127" target="vgv1np8Shwui1xYo7a8W-128">
          <mxGeometry relative="1" as="geometry" />
        </mxCell>
        <mxCell id="vgv1np8Shwui1xYo7a8W-127" value="A" style="ellipse;whiteSpace=wrap;html=1;aspect=fixed;fillColor=#d5e8d4;strokeColor=#82b366;fontSize=16;fontStyle=1;flipH=1;flipV=1;" vertex="1" parent="1">
          <mxGeometry x="-283.5" y="545" width="35" height="35" as="geometry" />
        </mxCell>
        <mxCell id="vgv1np8Shwui1xYo7a8W-128" value="null" style="text;html=1;strokeColor=none;fillColor=none;align=center;verticalAlign=middle;whiteSpace=wrap;rounded=0;fontSize=14;fontStyle=1;flipH=1;flipV=1;" vertex="1" parent="1">
          <mxGeometry x="-281" y="610" width="30" height="10" as="geometry" />
        </mxCell>
        <mxCell id="vgv1np8Shwui1xYo7a8W-129" style="edgeStyle=orthogonalEdgeStyle;rounded=0;orthogonalLoop=1;jettySize=auto;html=1;exitX=0.5;exitY=1;exitDx=0;exitDy=0;entryX=0.5;entryY=0;entryDx=0;entryDy=0;curved=1;" edge="1" parent="1" source="vgv1np8Shwui1xYo7a8W-130" target="vgv1np8Shwui1xYo7a8W-127">
          <mxGeometry relative="1" as="geometry">
            <Array as="points">
              <mxPoint x="-280.5" y="514" />
              <mxPoint x="-280.5" y="545" />
            </Array>
          </mxGeometry>
        </mxCell>
        <mxCell id="vgv1np8Shwui1xYo7a8W-130" value="B" style="ellipse;whiteSpace=wrap;html=1;aspect=fixed;fillColor=#d5e8d4;strokeColor=#82b366;fontSize=16;fontStyle=1;flipH=1;flipV=1;" vertex="1" parent="1">
          <mxGeometry x="-283.5" y="479" width="35" height="35" as="geometry" />
        </mxCell>
        <mxCell id="vgv1np8Shwui1xYo7a8W-131" style="edgeStyle=orthogonalEdgeStyle;rounded=0;orthogonalLoop=1;jettySize=auto;html=1;exitX=0.5;exitY=1;exitDx=0;exitDy=0;entryX=0.5;entryY=0;entryDx=0;entryDy=0;curved=1;" edge="1" parent="1">
          <mxGeometry relative="1" as="geometry">
            <mxPoint x="-263" y="545" as="sourcePoint" />
            <mxPoint x="-263" y="514" as="targetPoint" />
            <Array as="points">
              <mxPoint x="-248" y="545" />
              <mxPoint x="-248" y="514" />
            </Array>
          </mxGeometry>
        </mxCell>
      </root>
    </mxGraphModel>
  </diagram>
</mxfile>
